<mxfile host="app.diagrams.net" modified="2021-07-28T14:02:30.324Z" agent="5.0 (Windows NT 10.0; Win64; x64) AppleWebKit/537.36 (KHTML, like Gecko) Chrome/92.0.4515.107 Safari/537.36 Edg/92.0.902.55" etag="qgoFQ9-FdGQJJ09Phham" version="14.9.2" type="github">
  <diagram id="R2lEEEUBdFMjLlhIrx00" name="Page-1">
    <mxGraphModel dx="1038" dy="547" grid="1" gridSize="10" guides="1" tooltips="1" connect="1" arrows="1" fold="1" page="1" pageScale="1" pageWidth="1169" pageHeight="827" math="0" shadow="0" extFonts="Permanent Marker^https://fonts.googleapis.com/css?family=Permanent+Marker">
      <root>
        <mxCell id="0" />
        <mxCell id="1" parent="0" />
        <mxCell id="ONaG2uq_N2Sdirv-O2nb-1" value="输入信号" style="rounded=1;whiteSpace=wrap;html=1;" vertex="1" parent="1">
          <mxGeometry x="40" y="100" width="120" height="60" as="geometry" />
        </mxCell>
        <mxCell id="ONaG2uq_N2Sdirv-O2nb-12" value="" style="edgeStyle=orthogonalEdgeStyle;rounded=0;orthogonalLoop=1;jettySize=auto;html=1;" edge="1" parent="1" source="ONaG2uq_N2Sdirv-O2nb-2" target="ONaG2uq_N2Sdirv-O2nb-11">
          <mxGeometry relative="1" as="geometry" />
        </mxCell>
        <mxCell id="ONaG2uq_N2Sdirv-O2nb-2" value="FFT滤波处理" style="rounded=1;whiteSpace=wrap;html=1;" vertex="1" parent="1">
          <mxGeometry x="220" y="100" width="120" height="60" as="geometry" />
        </mxCell>
        <mxCell id="ONaG2uq_N2Sdirv-O2nb-3" value="" style="endArrow=classic;html=1;" edge="1" parent="1">
          <mxGeometry width="50" height="50" relative="1" as="geometry">
            <mxPoint x="160" y="130" as="sourcePoint" />
            <mxPoint x="220" y="130" as="targetPoint" />
          </mxGeometry>
        </mxCell>
        <mxCell id="ONaG2uq_N2Sdirv-O2nb-11" value="频率捕获&lt;br&gt;f" style="rounded=1;whiteSpace=wrap;html=1;" vertex="1" parent="1">
          <mxGeometry x="220" y="220" width="120" height="60" as="geometry" />
        </mxCell>
        <mxCell id="ONaG2uq_N2Sdirv-O2nb-13" value="" style="endArrow=classic;html=1;exitX=1;exitY=0.5;exitDx=0;exitDy=0;entryX=0;entryY=0.5;entryDx=0;entryDy=0;" edge="1" parent="1" source="ONaG2uq_N2Sdirv-O2nb-11" target="ONaG2uq_N2Sdirv-O2nb-15">
          <mxGeometry width="50" height="50" relative="1" as="geometry">
            <mxPoint x="360" y="300" as="sourcePoint" />
            <mxPoint x="480" y="200" as="targetPoint" />
            <Array as="points">
              <mxPoint x="380" y="250" />
              <mxPoint x="380" y="170" />
            </Array>
          </mxGeometry>
        </mxCell>
        <mxCell id="ONaG2uq_N2Sdirv-O2nb-17" value="" style="edgeStyle=orthogonalEdgeStyle;rounded=0;orthogonalLoop=1;jettySize=auto;html=1;" edge="1" parent="1" source="ONaG2uq_N2Sdirv-O2nb-15" target="ONaG2uq_N2Sdirv-O2nb-16">
          <mxGeometry relative="1" as="geometry" />
        </mxCell>
        <mxCell id="ONaG2uq_N2Sdirv-O2nb-20" value="" style="edgeStyle=orthogonalEdgeStyle;rounded=0;orthogonalLoop=1;jettySize=auto;html=1;" edge="1" parent="1" source="ONaG2uq_N2Sdirv-O2nb-15" target="ONaG2uq_N2Sdirv-O2nb-19">
          <mxGeometry relative="1" as="geometry" />
        </mxCell>
        <mxCell id="ONaG2uq_N2Sdirv-O2nb-15" value="判断频率范围&lt;br&gt;小于10kHz？" style="rounded=1;whiteSpace=wrap;html=1;" vertex="1" parent="1">
          <mxGeometry x="420" y="140" width="120" height="60" as="geometry" />
        </mxCell>
        <mxCell id="ONaG2uq_N2Sdirv-O2nb-16" value="" style="whiteSpace=wrap;html=1;rounded=1;" vertex="1" parent="1">
          <mxGeometry x="610" y="140" width="120" height="60" as="geometry" />
        </mxCell>
        <mxCell id="ONaG2uq_N2Sdirv-O2nb-18" value="是" style="text;html=1;align=center;verticalAlign=middle;resizable=0;points=[];autosize=1;strokeColor=none;" vertex="1" parent="1">
          <mxGeometry x="565" y="140" width="30" height="20" as="geometry" />
        </mxCell>
        <mxCell id="ONaG2uq_N2Sdirv-O2nb-19" value="" style="whiteSpace=wrap;html=1;rounded=1;" vertex="1" parent="1">
          <mxGeometry x="420" y="280" width="120" height="60" as="geometry" />
        </mxCell>
      </root>
    </mxGraphModel>
  </diagram>
</mxfile>
